<svg width="100" height="100" viewBox="0 0 100 100" fill="none" xmlns="http://www.w3.org/2000/svg">
<g clip-path="url(#clip0_6454_152829)">
<mask id="mask0_6454_152829" style="mask-type:luminance" maskUnits="userSpaceOnUse" x="0" y="0" width="100" height="100">
<path d="M0 0H100V100H0V0Z" fill="white"/>
</mask>
<g mask="url(#mask0_6454_152829)">
<path d="M92.2012 30.5222C92.2012 27.5173 91.359 24.6278 89.7664 22.167C88.3204 19.9331 86.3367 18.1428 84.0286 16.9893L80.5918 15.271C79.0482 14.4994 77.1714 15.1256 76.3997 16.6693C75.6281 18.213 76.2538 20.0903 77.7974 20.8619L81.2342 22.5795C83.4102 23.6675 85.9512 26.4003 85.9512 30.5222V50.0652C85.9512 50.0708 85.9517 50.0758 85.9517 50.0809C85.9517 50.0865 85.9512 50.0916 85.9512 50.0967V69.6402C85.9512 73.762 83.4102 76.4949 81.2342 77.5824L77.7974 79.3005C76.2538 80.0721 75.6281 81.9494 76.3997 83.4932C77.1714 85.0368 79.0482 85.663 80.5918 84.8908L84.0286 83.1727C86.3367 82.0196 88.3204 80.2287 89.7664 77.9954C91.359 75.5342 92.2012 72.6451 92.2012 69.6402V50.0967C92.2012 50.0916 92.2008 50.0865 92.2008 50.0809C92.2008 50.0758 92.2012 50.0708 92.2012 50.0652V30.5222Z" fill="white"/>
<path d="M8.20312 30.5222C8.20312 27.5173 9.04492 24.6278 10.6379 22.167C12.084 19.9331 14.0676 18.1428 16.3753 16.9893L19.812 15.271C21.3563 14.4994 23.2331 15.1256 24.0046 16.6693C24.7762 18.213 24.1507 20.0903 22.6064 20.8619L19.1697 22.5795C16.9943 23.6675 14.4531 26.4003 14.4531 30.5222V50.0652C14.4531 50.0708 14.4526 50.0758 14.4526 50.0809C14.4526 50.0865 14.4531 50.0916 14.4531 50.0967V69.6402C14.4531 73.762 16.9943 76.4949 19.1697 77.5824L22.6064 79.3005C24.1507 80.0721 24.7762 81.9494 24.0046 83.4932C23.2331 85.0368 21.3563 85.663 19.812 84.8908L16.3753 83.1727C14.0676 82.0196 12.084 80.2287 10.6379 77.9954C9.04492 75.5342 8.20312 72.6451 8.20312 69.6402V50.0967C8.20312 50.0916 8.20365 50.0865 8.20365 50.0809C8.20365 50.0758 8.20312 50.0708 8.20312 50.0652V30.5222Z" fill="white"/>
<path d="M47.7956 30.3092C47.6954 30.2381 47.5952 30.1658 47.495 30.0961C47.3836 30.0183 47.2728 29.9414 47.1613 29.8651C46.9874 29.7467 46.8129 29.6292 46.6385 29.5142C46.5271 29.4409 46.4163 29.3693 46.3043 29.2976C46.1273 29.1831 45.9503 29.0692 45.7728 28.9593C45.6751 28.8993 45.578 28.8413 45.4809 28.7829C44.8389 28.3933 44.1961 28.0305 43.5531 27.6954C43.4544 27.644 43.3553 27.5911 43.2566 27.5408C43.0771 27.4496 42.8975 27.3623 42.7174 27.2753C42.6091 27.2228 42.5003 27.17 42.3914 27.119C42.2134 27.0352 42.0354 26.9538 41.8574 26.8749C41.7491 26.8266 41.6408 26.7788 41.5329 26.7326C41.3529 26.6547 41.1733 26.5784 40.9937 26.5056C40.8921 26.464 40.7908 26.4248 40.6891 26.3847C40.5029 26.3114 40.3168 26.2387 40.1311 26.17C40.0579 26.143 39.9852 26.1187 39.9118 26.0927C39.2487 25.8546 38.5889 25.6491 37.9349 25.4757C37.8484 25.4529 37.7615 25.4284 37.6755 25.4065C37.4954 25.3612 37.3164 25.3206 37.1379 25.2799C37.0362 25.2571 36.9349 25.2342 36.8337 25.2128C36.6608 25.1762 36.4879 25.1426 36.3159 25.1111C36.2112 25.0917 36.1074 25.0739 36.0031 25.0562C35.8332 25.0276 35.6638 25.0002 35.495 24.9762C35.3913 24.962 35.288 24.9498 35.1842 24.9371C35.0154 24.9162 34.846 24.8948 34.6781 24.8786C34.5866 24.8694 34.4961 24.8644 34.4049 24.8572C34.0887 24.8313 33.7743 24.815 33.463 24.8075C33.3542 24.8043 33.2448 24.7993 33.137 24.7987C33.0297 24.7977 32.9238 24.8023 32.8171 24.8038C32.6238 24.8064 32.431 24.812 32.2402 24.8217C32.1268 24.8278 32.0134 24.8348 31.9005 24.843C31.6991 24.8582 31.4992 24.878 31.3009 24.9015C31.2148 24.9111 31.1284 24.9188 31.043 24.9305C30.7708 24.9671 30.5018 25.0124 30.2353 25.0648C30.1504 25.0815 30.0669 25.1019 29.9831 25.1202C29.7862 25.1629 29.5904 25.2097 29.3971 25.2616C29.306 25.2855 29.2145 25.3105 29.124 25.3364C28.9012 25.4015 28.6814 25.4722 28.4638 25.549C28.4185 25.5648 28.3727 25.5784 28.3284 25.5947C28.0701 25.6888 27.8168 25.7937 27.5665 25.9055C27.4937 25.9381 27.4221 25.9732 27.3499 26.0072C27.1617 26.0957 26.9755 26.1899 26.7924 26.2886C26.7197 26.3271 26.6465 26.3658 26.5747 26.4065C26.332 26.5438 26.0915 26.6873 25.8576 26.8429C17.1646 32.624 18.0456 48.8812 27.8259 63.1547C28.1138 63.5749 28.4073 63.9864 28.7038 64.3938C28.7913 64.5138 28.8798 64.6318 28.9678 64.7503C29.1911 65.052 29.4164 65.3495 29.6443 65.6435C29.7318 65.7559 29.8187 65.8693 29.9068 65.9806C30.2139 66.3709 30.5242 66.7559 30.8391 67.1322C30.8503 67.1455 30.8615 67.1581 30.8727 67.1709C31.1777 67.5351 31.487 67.8905 31.7983 68.2416C31.8898 68.3448 31.9819 68.446 32.0734 68.5477C32.3212 68.8224 32.571 69.0925 32.8221 69.359C32.9091 69.4516 32.9961 69.5447 33.0841 69.6362C33.4168 69.9836 33.7514 70.3249 34.0897 70.6571C34.1055 70.6723 34.1207 70.686 34.1365 70.7012C34.4585 71.0166 34.7829 71.3239 35.1095 71.6254C35.2021 71.7114 35.2951 71.7953 35.3876 71.8797C35.6568 72.1244 35.9273 72.3645 36.199 72.5999C36.2823 72.6722 36.3658 72.7455 36.4497 72.8166C36.8017 73.1172 37.1556 73.4118 37.5112 73.696C37.529 73.7103 37.5467 73.7235 37.5641 73.7378C37.8987 74.0043 38.2354 74.2627 38.5727 74.5149C38.6638 74.5826 38.7548 74.6498 38.8458 74.7163C39.1322 74.9274 39.4195 75.1325 39.7074 75.3323C39.7848 75.3862 39.8621 75.4417 39.9398 75.4946C40.3046 75.7443 40.6698 75.9864 41.0359 76.2188C41.0583 76.2331 41.0812 76.2463 41.1036 76.2606C41.4414 76.4736 41.779 76.6776 42.1178 76.8759C42.2078 76.9288 42.2984 76.9802 42.3884 77.0321C42.6839 77.2015 42.9799 77.3658 43.2759 77.524C43.3482 77.5627 43.421 77.6028 43.4936 77.6404C43.8618 77.8343 44.2302 78.0194 44.5979 78.1943C44.6289 78.2092 44.6599 78.2223 44.691 78.237C45.0211 78.3927 45.3506 78.5403 45.6797 78.6806C45.7194 78.6974 45.7586 78.7137 45.7978 78.73C44.5445 77.5184 43.3842 76.0499 42.3441 74.3414C39.2324 69.2318 37.5184 62.4855 37.5184 55.3443C37.5184 48.2037 39.2324 41.4568 42.3441 36.3472C43.9173 33.7644 45.7656 31.7374 47.7956 30.3092Z" fill="white"/>
<path d="M68.5008 42.8192C68.3568 42.4057 68.2052 41.9998 68.0471 41.6015C68.0206 41.5338 67.9936 41.4667 67.9667 41.4001C67.8055 41.0019 67.6381 40.6117 67.4637 40.2298C67.4383 40.1727 67.4113 40.1169 67.3854 40.0604C67.2043 39.6708 67.0176 39.2888 66.8238 38.918C66.806 38.8834 66.7872 38.8503 66.7694 38.8162C66.3574 38.036 65.9164 37.2985 65.45 36.6069C65.4323 36.5799 65.4145 36.5524 65.3961 36.5255C65.1719 36.1963 64.9404 35.879 64.7049 35.5713C64.6738 35.5311 64.6439 35.4908 64.6129 35.4513C64.3809 35.1536 64.1434 34.8673 63.9008 34.5911C63.8651 34.5505 63.8285 34.5092 63.7924 34.4686C63.5488 34.197 63.3005 33.9355 63.0478 33.6863C63.0128 33.6516 62.9776 33.6186 62.9425 33.5846C62.6831 33.3338 62.4191 33.0932 62.15 32.8669C62.1257 32.8466 62.1008 32.8272 62.0758 32.8069C61.5117 32.3389 60.9279 31.9269 60.3267 31.5744C60.2992 31.5582 60.2723 31.5408 60.2448 31.5251C59.9589 31.3604 59.668 31.2118 59.374 31.0744C59.3313 31.0541 59.288 31.0333 59.2448 31.0135C58.9574 30.8838 58.6665 30.7683 58.372 30.6656C58.3232 30.6483 58.2738 30.6315 58.2245 30.6152C57.93 30.5175 57.6324 30.4326 57.3323 30.363C57.2856 30.3518 57.2388 30.3425 57.1919 30.3324C56.8837 30.2657 56.5734 30.2118 56.2607 30.1752C56.2276 30.1717 56.194 30.1696 56.1609 30.1661C55.8309 30.1315 55.4987 30.1101 55.1635 30.1101C54.9017 30.1101 54.6417 30.1229 54.3833 30.1447C54.3116 30.1503 54.2409 30.1615 54.1693 30.1691C53.9805 30.189 53.7923 30.2118 53.6052 30.2434C53.5273 30.2566 53.45 30.2729 53.3721 30.2876C53.1917 30.3222 53.0121 30.3609 52.8336 30.4057C52.7557 30.4255 52.6784 30.4463 52.6012 30.4677C52.4272 30.516 52.2542 30.5694 52.0818 30.6269C52.0366 30.6427 51.9908 30.6584 51.9451 30.6742C55.3055 33.5057 58.4646 36.9826 61.1928 40.9652C61.9949 42.1351 62.738 43.3263 63.4323 44.5291C65.1448 43.7641 66.8585 43.2139 68.5288 42.9001C68.5195 42.8731 68.5104 42.8462 68.5008 42.8192Z" fill="white"/>
<path d="M77.8432 46.9376C77.5986 46.723 77.3387 46.5307 77.0716 46.3497C76.9937 46.2968 76.9129 46.248 76.8331 46.1981C76.6292 46.0704 76.4201 45.9514 76.2049 45.842C76.1225 45.8003 76.0406 45.7566 75.9568 45.7174C75.3652 45.4412 74.735 45.2302 74.0723 45.0852C73.9888 45.0664 73.9039 45.0516 73.8195 45.0354C73.5544 44.9845 73.2849 44.9428 73.0108 44.9118C72.9253 44.9022 72.8404 44.891 72.7544 44.8833C72.344 44.8457 71.9238 44.8329 71.4956 44.838C72.3547 48.1253 72.8083 51.6821 72.8083 55.3447C72.8083 62.4854 71.0948 69.2317 67.9829 74.3414C67.3553 75.3718 66.6845 76.3144 65.9754 77.1669C66.8849 76.6084 67.7887 75.9833 68.6793 75.2976C68.7195 75.2666 68.7596 75.2371 68.7999 75.2061C69.0256 75.03 69.2505 74.847 69.4747 74.6628C69.5918 74.5668 69.7087 74.4712 69.8253 74.3725C70.015 74.2127 70.2031 74.0489 70.3909 73.8837C70.546 73.7463 70.701 73.607 70.8552 73.4656C71.0145 73.3201 71.173 73.1737 71.3307 73.024C71.5255 72.8384 71.7189 72.6477 71.9116 72.4559C72.0316 72.3359 72.1533 72.2184 72.2723 72.0963C72.5871 71.7739 72.8988 71.4442 73.2056 71.105C81.0659 62.4045 83.1426 51.5839 77.8432 46.9376Z" fill="white"/>
<path d="M69.1956 45.0556C67.6865 45.3141 66.1128 45.7997 64.5198 46.4971C67.4621 52.1383 69.1956 57.9936 69.491 63.441C69.5073 63.7492 69.512 64.0503 69.5195 64.3529C70.1711 61.5544 70.5318 58.519 70.5318 55.3447C70.5318 51.6785 70.0516 48.199 69.1956 45.0556ZM49.7086 31.752C49.7081 31.7525 49.7076 31.7525 49.707 31.753C43.9138 35.3678 39.7949 44.5638 39.7949 55.3447C39.7949 62.3215 41.5197 68.6366 44.3069 73.2046C44.0633 71.4508 44.1299 69.5232 44.5246 67.4663C45.4763 62.5077 48.2432 57.2947 52.3152 52.7878C55.0491 49.7615 58.1839 47.2936 61.3958 45.5398C60.7499 44.4255 60.057 43.3167 59.3064 42.2201C56.4539 38.0579 53.1602 34.5271 49.7086 31.752Z" fill="white"/>
<path fill-rule="evenodd" clip-rule="evenodd" d="M56.1177 73.1258C54.2312 73.1258 52.7018 71.6117 52.7018 69.7435C52.7018 67.8758 54.2312 66.3611 56.1177 66.3611C58.0048 66.3611 59.5342 67.8758 59.5342 69.7435C59.5342 71.6117 58.0048 73.1258 56.1177 73.1258ZM62.3489 47.5002C59.4182 49.1034 56.4967 51.3887 53.8854 54.2792C46.0251 62.9798 43.9488 73.7997 49.2478 78.4461C50.7833 79.7924 52.7725 80.4648 55.0104 80.5406C57.0531 80.4002 58.9523 79.8413 60.6389 78.8392C61.8463 78.0616 62.9792 77.0423 64.0152 75.8144C68.7012 69.6173 68.0506 58.4285 62.3489 47.5002Z" fill="white"/>
</g>
</g>
<defs>
<clipPath id="clip0_6454_152829">
<rect width="100" height="100" fill="white"/>
</clipPath>
</defs>
</svg>